G04 EasyPC Gerber Version 21.0.3 Build 4286 *
%FSLAX35Y35*%
%MOIN*%
%ADD71C,0.00001*%
%ADD20C,0.00100*%
%ADD70C,0.00394*%
%ADD19C,0.00500*%
%ADD21C,0.00800*%
%ADD85C,0.01000*%
X0Y0D02*
D02*
D19*
X93591Y43077D02*
Y37777D01*
X81291*
Y43077*
X93591*
X109242Y41943D02*
Y61943D01*
X121742*
Y41943*
X109242*
X365148D02*
Y61943D01*
X377648*
Y41943*
X365148*
D02*
D70*
X115394Y84915D02*
Y70742D01*
X124449Y84915D02*
Y70742D01*
D02*
D71*
X225236Y95053D02*
X225252Y95006D01*
X225270Y94959*
X225289Y94914*
X225309Y94870*
X225330Y94826*
X225354Y94784*
X225378Y94742*
X225403Y94701*
X225429Y94661*
X225456Y94622*
X225485Y94583*
X225513Y94545*
X225543Y94507*
X225574Y94470*
X225605Y94433*
X225637Y94397*
X225669Y94361*
X225701Y94325*
X225734Y94290*
X225768Y94254*
X225801Y94219*
X225835Y94184*
X225868Y94149*
X225902Y94114*
X225935Y94079*
X225969Y94044*
X226002Y94008*
X226035Y93973*
X226068Y93937*
X226100Y93901*
X226132Y93864*
X226163Y93828*
X226194Y93790*
X226224Y93752*
X226253Y93714*
X226281Y93675*
X226309Y93635*
X226335Y93594*
X226361Y93553*
X226386Y93511*
X226410Y93468*
X226432Y93424*
X226454Y93380*
X226475Y93335*
X226495Y93290*
X226515Y93245*
X226533Y93199*
X226552Y93152*
X226569Y93106*
X226586Y93059*
X226603Y93012*
X226620Y92964*
X226636Y92917*
X226652Y92869*
X226667Y92821*
X226683Y92773*
X226699Y92726*
X226715Y92678*
X226730Y92630*
X226746Y92582*
X226780Y92487*
X226796Y92440*
X226814Y92393*
X226832Y92346*
X226850Y92300*
X226869Y92254*
X226889Y92208*
X226910Y92163*
X226931Y92118*
X226954Y92074*
X226977Y92030*
X227001Y91987*
X227026Y91945*
X227053Y91903*
X227080Y91862*
X227107Y91821*
X227135Y91780*
X227164Y91739*
X227193Y91698*
X227222Y91657*
X227252Y91617*
X227283Y91576*
X227314Y91536*
X227346Y91496*
X227378Y91457*
X227411Y91417*
X227444Y91379*
X227478Y91341*
X227513Y91304*
X227548Y91267*
X227583Y91231*
X227619Y91196*
X227656Y91162*
X227693Y91129*
X227731Y91097*
X227769Y91066*
X227808Y91036*
X227850Y91006*
X227893Y90976*
X227936Y90948*
X227981Y90921*
X228026Y90894*
X228161Y90817*
X228207Y90790*
X228252Y90763*
X228296Y90736*
X228339Y90708*
X228381Y90679*
X228423Y90648*
X228463Y90617*
X228503Y90581*
X228540Y90543*
X228574Y90502*
X228607Y90461*
X228640Y90417*
X228671Y90373*
X228702Y90330*
X228733Y90286*
X228766Y90243*
X228799Y90202*
X228833Y90163*
X228867Y90123*
X228902Y90083*
X228937Y90044*
X229007Y89966*
X229043Y89927*
X229078Y89888*
X229114Y89850*
X229150Y89811*
X229186Y89772*
X229329Y89618*
X229365Y89580*
X229400Y89541*
X229436Y89503*
X228286Y89553*
X221186Y89503*
X179336*
Y89703*
X179285Y89705*
X179234Y89708*
X179183Y89713*
X179134Y89720*
X179084Y89727*
X179035Y89736*
X178986Y89744*
X178937Y89754*
X178887Y89763*
X178838Y89772*
X178789Y89780*
X178739Y89787*
X178689Y89794*
X178639Y89798*
X178588Y89802*
X178536Y89803*
Y89953*
X177936*
Y90103*
X177286*
Y90303*
X177235Y90304*
X177183Y90306*
X177133Y90309*
X177082Y90313*
X177032Y90319*
X176982Y90324*
X176933Y90331*
X176883Y90338*
X176834Y90345*
X176784Y90352*
X176686Y90367*
X176637Y90374*
X176537Y90387*
X176488Y90392*
X176438Y90396*
X176387Y90400*
X176337Y90402*
X176286Y90403*
Y90603*
X176236Y90604*
X176186Y90606*
X176136Y90609*
X176086Y90612*
X176037Y90616*
X175987Y90620*
X175888Y90631*
X175789Y90643*
X175739Y90648*
X175690Y90655*
X175591Y90667*
X175541Y90672*
X175491Y90678*
X175441Y90683*
X175391Y90688*
X175340Y90692*
X175290Y90696*
X175239Y90699*
X175189Y90701*
X175137Y90702*
X175086Y90703*
Y90603*
X175286*
Y90403*
X175337Y90391*
X175388Y90380*
X175437Y90368*
X175486Y90357*
X175534Y90346*
X175583Y90336*
X175631Y90327*
X175680Y90319*
X175730Y90312*
X175780Y90307*
X175832Y90304*
X175886Y90303*
Y90103*
X176086*
Y89953*
X176486*
Y89803*
X176537Y89791*
X176588Y89780*
X176637Y89768*
X176686Y89757*
X176734Y89746*
X176783Y89736*
X176831Y89727*
X176880Y89719*
X176930Y89712*
X176980Y89707*
X177032Y89704*
X177086Y89703*
Y89503*
X177486*
Y89353*
X177736*
Y89203*
X178136*
Y89053*
X178336*
Y88853*
X178389Y88851*
X178440Y88846*
X178491Y88840*
X178540Y88832*
X178589Y88823*
X178687Y88802*
X178736Y88791*
X178785Y88780*
X178835Y88770*
X178885Y88761*
X178936Y88753*
Y88603*
X179336*
Y88453*
X179386Y88453*
X182686*
X182736Y88452*
X184136*
X184186Y88452*
X185286*
X185336Y88452*
X186236*
X186286Y88451*
X187086*
X187136Y88451*
X187836*
X187886Y88450*
X188536*
X188586Y88450*
X189186*
X189236Y88450*
X189836*
X189886Y88449*
X190436*
X190486Y88449*
X190987*
X191037Y88448*
X191537*
X191587Y88448*
X192087*
X192137Y88448*
X192587*
X192637Y88447*
X193087*
X193137Y88447*
X193537*
X193587Y88446*
X194037*
X194087Y88446*
X194487*
X194537Y88446*
X194937*
X194987Y88445*
X195337*
X195387Y88445*
X195787*
X195837Y88444*
X196187*
X196237Y88444*
X196587*
X196637Y88444*
X196987*
X197037Y88443*
X197387*
X197437Y88443*
X197787*
X197837Y88443*
X198137*
X198187Y88442*
X198537*
X198587Y88442*
X198887*
X198937Y88441*
X199287*
X199337Y88441*
X199637*
X199687Y88441*
X199987*
X200037Y88440*
X200337*
X200387Y88440*
X200687*
X200737Y88439*
X201037*
X201087Y88439*
X201387*
X201437Y88439*
X201687*
X201737Y88438*
X202038*
X202088Y88438*
X202388*
X202438Y88437*
X202688*
X202738Y88437*
X203038*
X203088Y88437*
X203338*
X203388Y88436*
X203638*
X203688Y88436*
X203988*
X204038Y88435*
X204288*
X204338Y88435*
X204588*
X204638Y88435*
X204888*
X204938Y88434*
X205238*
X205288Y88434*
X205538*
X205588Y88433*
X205838*
X205888Y88433*
X206138*
X206188Y88433*
X206438*
X206488Y88432*
X206688*
X206738Y88432*
X206988*
X207038Y88431*
X207288*
X207338Y88431*
X207588*
X207638Y88431*
X207888*
X207938Y88430*
X208138*
X208188Y88430*
X208438*
X208488Y88430*
X208738*
X208788Y88429*
X209038*
X209088Y88429*
X209288*
X209338Y88428*
X209588*
X209638Y88428*
X209838*
X209888Y88428*
X210138*
X210188Y88427*
X210388*
X210438Y88427*
X210688*
X210738Y88426*
X210938*
X210988Y88426*
X211238*
X211288Y88426*
X211488*
X211538Y88425*
X211788*
X211838Y88425*
X212038*
X212088Y88424*
X212288*
X212338Y88424*
X212588*
X212638Y88424*
X212838*
X212888Y88423*
X213088*
X213138Y88423*
X213388*
X213438Y88422*
X213638*
X213688Y88422*
X213888*
X213938Y88422*
X214138*
X214188Y88421*
X214388*
X214438Y88421*
X214688*
X214738Y88420*
X214938*
X214988Y88420*
X215188*
X215238Y88420*
X215438*
X215488Y88419*
X215688*
X215738Y88419*
X215988*
X216038Y88419*
X216238*
X216288Y88418*
X216488*
X216538Y88418*
X216738*
X216788Y88417*
X216988*
X217038Y88417*
X217238*
X217288Y88417*
X217488*
X217538Y88416*
X217738*
X217788Y88416*
X217988*
X218038Y88415*
X218238*
X218288Y88415*
X218488*
X218538Y88415*
X218738*
X218788Y88414*
X218988*
X219038Y88414*
X219238*
X219287Y88413*
X219487*
X219537Y88413*
X219737*
X219787Y88413*
X219987*
X220037Y88412*
X220237*
X220287Y88412*
X220487*
X220537Y88411*
X220737*
X220787Y88411*
X220987*
X221037Y88411*
X221237*
X221287Y88410*
X221487*
X221537Y88410*
X221737*
X221787Y88409*
X221987*
X222037Y88409*
X222237*
X222287Y88409*
X222487*
X222537Y88408*
X222737*
X222787Y88408*
X222987*
X223037Y88407*
X223187*
X223237Y88407*
X223437*
X223487Y88407*
X223687*
X223737Y88406*
X223937*
X223987Y88406*
X224187*
X224237Y88406*
X224437*
X224487Y88405*
X224686*
X224736Y88405*
X224936*
X224986Y88404*
X225186*
X225236Y88404*
X225436*
X225486Y88404*
X225686*
X225736Y88403*
X225936*
X225986Y88403*
X226236*
X226286Y88402*
X226785*
X226835Y88403*
X227135*
X227185Y88403*
X227335*
X227385Y88404*
X227535*
X227585Y88404*
X227685*
X227735Y88404*
X227835*
X227885Y88405*
X227935*
X227985Y88405*
X228085*
X228135Y88406*
X228185*
X228235Y88406*
X228285*
X228335Y88406*
X228385*
X228435Y88407*
X228485*
X228535Y88407*
X228585*
X228634Y88407*
X228684*
X228734Y88408*
X228784*
X228884Y88409*
X228934*
X228984Y88409*
X229034*
X229134Y88410*
X229184*
X229284Y88411*
X229334*
X229434Y88411*
X229484*
X229634Y88413*
X229684*
X229784Y88413*
X229834*
X229984Y88415*
X230034*
X230234Y88416*
X230284*
X230484Y88418*
X230534*
X230784Y88420*
X230834*
X231134Y88422*
X231184*
X231284Y88423*
X231335Y88423*
X231535Y88425*
X231585*
X231935Y88428*
X231985*
X232335Y88430*
X232385*
X232735Y88433*
X232785*
X232835Y88433*
X233085Y88435*
X233135*
X233385Y88437*
X233435*
X233635Y88439*
X233685*
X233885Y88441*
X233935*
X233985Y88441*
X234035Y88441*
X234085Y88442*
X234135*
X234285Y88443*
X234335*
X234435Y88444*
X234485*
X234585Y88444*
X234635*
X234735Y88445*
X234785*
X234885Y88446*
X234935*
X235035Y88447*
X235085*
X235135Y88447*
X235185*
X235285Y88448*
X235336*
X235386Y88448*
X235436*
X235486Y88449*
X235536*
X235586Y88449*
X235636*
X235686Y88450*
X235736*
X235786Y88450*
X235886*
X235936Y88450*
X235986*
X236036Y88451*
X236136*
X236186Y88451*
X236236*
X236286Y88452*
X236436*
X236486Y88452*
X236586*
X236636Y88452*
X236836*
X236886Y88453*
X237386*
X237436Y88453*
Y88253*
X237485*
X237533Y88254*
X237583Y88255*
X237633Y88257*
X237733Y88261*
X237783Y88263*
X237834Y88265*
X237885Y88266*
X237935Y88268*
X237986Y88269*
X238037Y88270*
X238087*
X238137Y88269*
X238188Y88268*
X238238Y88266*
X238287Y88263*
X238337Y88259*
X238385Y88254*
X238434Y88248*
X238481Y88240*
X238532Y88230*
X238583Y88219*
X238633Y88207*
X238683Y88193*
X238733Y88179*
X238783Y88165*
X238833Y88150*
X238883Y88135*
X238933Y88120*
X238983Y88107*
X239033Y88093*
X239083Y88081*
X239134Y88070*
X239185Y88061*
X239236Y88053*
Y87803*
X239636Y87703*
Y87553*
X239836*
Y87203*
X240036*
Y86603*
X240236*
Y86003*
X240036*
Y85653*
X239836*
Y85453*
X239636*
Y85053*
X239236Y84953*
Y84653*
X239036*
Y84353*
X238636Y84253*
Y83903*
X238436*
Y83603*
X238236*
Y83303*
X237836Y83203*
Y82803*
X237636*
Y82503*
X237236Y82403*
Y82103*
X237036*
X237016Y82055*
X236995Y82008*
X236973Y81963*
X236951Y81918*
X236929Y81874*
X236907Y81831*
X236886Y81787*
X236866Y81743*
X236847Y81699*
X236830Y81653*
X236815Y81606*
X236802Y81557*
X236793Y81506*
X236786Y81453*
X237236*
Y81653*
X237436*
Y81803*
X237636*
Y81953*
X237836*
Y82103*
X238036*
Y82253*
X238236*
Y82403*
X238636Y82503*
Y82703*
X239036Y82803*
Y83003*
X239236*
Y83203*
X239289Y83212*
X239341Y83224*
X239391Y83240*
X239441Y83257*
X239489Y83276*
X239538Y83296*
X239586Y83316*
X239635Y83336*
X239684Y83356*
X239733Y83374*
X239784Y83389*
X239836Y83403*
Y83603*
X240036*
Y83753*
X240236*
Y84053*
X240436*
Y84253*
X240836Y84353*
Y84653*
X241036*
Y84953*
X241236*
Y85303*
X241436*
Y85653*
X241636*
Y86953*
X241436*
Y87553*
X241236*
Y87803*
X241036*
Y88153*
X240636Y88253*
Y88453*
X240436*
Y88603*
X240236*
Y88753*
X240185Y88765*
X240134Y88776*
X240085Y88788*
X240036Y88799*
X239988Y88810*
X239939Y88820*
X239891Y88829*
X239842Y88837*
X239792Y88844*
X239742Y88848*
X239690Y88852*
X239636Y88853*
Y89053*
X239236*
Y89203*
X238836*
Y89353*
X238236*
Y89503*
X230736*
X230688Y89503*
X230639Y89502*
X230589Y89500*
X230538Y89498*
X230486Y89497*
X230434Y89496*
X230382Y89495*
X230330*
X230278Y89496*
X230225Y89498*
X230173Y89501*
X230122Y89506*
X230071Y89513*
X230020Y89521*
X229971Y89532*
X229923Y89545*
X229876Y89561*
X229830Y89580*
X229786Y89602*
X229745Y89626*
X229706Y89652*
X229667Y89679*
X229628Y89709*
X229591Y89740*
X229554Y89773*
X229518Y89807*
X229483Y89842*
X229448Y89878*
X229413Y89915*
X229379Y89953*
X229345Y89992*
X229312Y90030*
X229279Y90069*
X229246Y90109*
X229181Y90186*
X229148Y90224*
X229116Y90262*
X229084Y90299*
X229051Y90335*
X229019Y90369*
X228986Y90403*
X229043Y90405*
X229097Y90410*
X229148Y90418*
X229198Y90428*
X229246Y90439*
X229293Y90453*
X229339Y90467*
X229387Y90482*
X229434Y90497*
X229483Y90511*
X229534Y90525*
X229588Y90538*
X229637Y90549*
X229686Y90559*
X229735Y90570*
X229784Y90580*
X229833Y90591*
X229883Y90601*
X229932Y90612*
X230031Y90635*
X230080Y90646*
X230129Y90659*
X230178Y90671*
X230227Y90685*
X230276Y90698*
X230324Y90713*
X230372Y90729*
X230420Y90745*
X230468Y90762*
X230515Y90780*
X230562Y90799*
X230609Y90819*
X230655Y90840*
X230700Y90863*
X230746Y90887*
X230790Y90911*
X230834Y90938*
X230878Y90966*
X230920Y90995*
X230961Y91025*
X231001Y91056*
X231041Y91088*
X231078Y91121*
X231115Y91155*
X231151Y91190*
X231186Y91226*
X231220Y91262*
X231253Y91299*
X231285Y91337*
X231317Y91376*
X231347Y91415*
X231377Y91455*
X231406Y91495*
X231434Y91537*
X231462Y91578*
X231489Y91620*
X231515Y91663*
X231541Y91706*
X231566Y91749*
X231591Y91793*
X231615Y91837*
X231639Y91881*
X231662Y91926*
X231685Y91971*
X231707Y92016*
X231730Y92061*
X231752Y92106*
X231774Y92152*
X231795Y92197*
X231816Y92243*
X231837Y92288*
X231859Y92333*
X231900Y92424*
X231920Y92469*
X231937Y92513*
X231954Y92559*
X231969Y92605*
X231983Y92652*
X231996Y92699*
X232008Y92746*
X232020Y92794*
X232042Y92891*
X232052Y92939*
X232063Y92987*
X232074Y93035*
X232086Y93083*
X232098Y93131*
X232110Y93179*
X232124Y93226*
X232138Y93272*
X232154Y93319*
X232171Y93364*
X232189Y93409*
X232209Y93453*
X232231Y93496*
X232256Y93538*
X232282Y93579*
X232310Y93619*
X232341Y93658*
X232376Y93696*
X232412Y93729*
X232448Y93757*
X232485Y93782*
X232524Y93803*
X232563Y93820*
X232602Y93834*
X232642Y93846*
X232682Y93856*
X232723Y93863*
X232764Y93869*
X232806Y93874*
X232847Y93878*
X232931Y93885*
X232972Y93889*
X233014Y93894*
X233056Y93900*
X233097Y93907*
X233138Y93916*
X233179Y93928*
X233219Y93942*
X233259Y93959*
X233298Y93979*
X233336Y94003*
X233288Y94017*
X233239Y94029*
X233189Y94041*
X233139Y94052*
X232938Y94091*
X232887Y94101*
X232837Y94111*
X232787Y94123*
X232737Y94135*
X232688Y94148*
X232639Y94163*
X232592Y94179*
X232544Y94197*
X232496Y94219*
X232449Y94244*
X232404Y94272*
X232360Y94301*
X232317Y94332*
X232276Y94364*
X232234Y94396*
X232193Y94428*
X232152Y94459*
X232109Y94489*
X232066Y94518*
X232022Y94544*
X231976Y94567*
X231935Y94584*
X231892Y94600*
X231847Y94614*
X231800Y94626*
X231752Y94637*
X231703Y94647*
X231652Y94655*
X231601Y94662*
X231549Y94667*
X231496Y94671*
X231443Y94674*
X231389Y94676*
X231335Y94676*
X231281Y94676*
X231228Y94674*
X231174Y94672*
X231121Y94669*
X231069Y94664*
X231018Y94659*
X230967Y94653*
X230918Y94646*
X230870Y94638*
X230824Y94630*
X230780Y94621*
X230737Y94612*
X230688Y94600*
X230641Y94585*
X230594Y94569*
X230548Y94551*
X230502Y94531*
X230458Y94509*
X230414Y94487*
X230370Y94463*
X230328Y94438*
X230285Y94412*
X230243Y94385*
X230201Y94357*
X230160Y94329*
X230119Y94300*
X230078Y94271*
X230037Y94242*
X229996Y94212*
X229915Y94154*
X229874Y94125*
X229833Y94097*
X229792Y94069*
X229751Y94043*
X229709Y94016*
X229668Y93991*
X229626Y93967*
X229581Y93944*
X229535Y93923*
X229488Y93904*
X229440Y93887*
X229391Y93872*
X229342Y93857*
X229292Y93845*
X229241Y93833*
X229191Y93822*
X229139Y93812*
X229088Y93802*
X229037Y93793*
X228986Y93783*
X228936Y93774*
X228885Y93764*
X228835Y93754*
X228787Y93743*
X228738Y93731*
X228691Y93718*
X228644Y93705*
X228597Y93690*
X228550Y93675*
X228456Y93644*
X228409Y93628*
X228362Y93611*
X228315Y93595*
X228268Y93580*
X228221Y93564*
X228174Y93549*
X228126Y93535*
X228078Y93521*
X228030Y93509*
X227982Y93497*
X227934Y93487*
X227885Y93478*
X227836Y93470*
X227787Y93465*
X227738Y93461*
X227688Y93459*
X227638*
X227587Y93461*
X227536Y93466*
X227487Y93474*
X227439Y93485*
X227393Y93501*
X227348Y93520*
X227304Y93542*
X227261Y93567*
X227219Y93594*
X227178Y93622*
X227138Y93652*
X227098Y93683*
X227059Y93715*
X227020Y93746*
X226982Y93778*
X226944Y93809*
X226907Y93839*
X226827Y93901*
X226788Y93932*
X226710Y93995*
X226671Y94027*
X226633Y94059*
X226594Y94091*
X226556Y94122*
X226518Y94154*
X226442Y94219*
X226404Y94252*
X226367Y94284*
X226329Y94317*
X226291Y94349*
X226254Y94382*
X226216Y94415*
X226179Y94448*
X226141Y94481*
X226066Y94548*
X226029Y94581*
X225991Y94615*
X225954Y94648*
X225917Y94682*
X225881Y94717*
X225846Y94751*
X225811Y94786*
X225776Y94821*
X225741Y94855*
X225706Y94887*
X225669Y94919*
X225633Y94948*
X225595Y94975*
X225556Y94999*
X225516Y95019*
X225474Y95037*
X225431Y95050*
X225385Y95058*
X225338Y95062*
X225288Y95060*
X225236Y95053*
G36*
X225252Y95006*
X225270Y94959*
X225289Y94914*
X225309Y94870*
X225330Y94826*
X225354Y94784*
X225378Y94742*
X225403Y94701*
X225429Y94661*
X225456Y94622*
X225485Y94583*
X225513Y94545*
X225543Y94507*
X225574Y94470*
X225605Y94433*
X225637Y94397*
X225669Y94361*
X225701Y94325*
X225734Y94290*
X225768Y94254*
X225801Y94219*
X225835Y94184*
X225868Y94149*
X225902Y94114*
X225935Y94079*
X225969Y94044*
X226002Y94008*
X226035Y93973*
X226068Y93937*
X226100Y93901*
X226132Y93864*
X226163Y93828*
X226194Y93790*
X226224Y93752*
X226253Y93714*
X226281Y93675*
X226309Y93635*
X226335Y93594*
X226361Y93553*
X226386Y93511*
X226410Y93468*
X226432Y93424*
X226454Y93380*
X226475Y93335*
X226495Y93290*
X226515Y93245*
X226533Y93199*
X226552Y93152*
X226569Y93106*
X226586Y93059*
X226603Y93012*
X226620Y92964*
X226636Y92917*
X226652Y92869*
X226667Y92821*
X226683Y92773*
X226699Y92726*
X226715Y92678*
X226730Y92630*
X226746Y92582*
X226780Y92487*
X226796Y92440*
X226814Y92393*
X226832Y92346*
X226850Y92300*
X226869Y92254*
X226889Y92208*
X226910Y92163*
X226931Y92118*
X226954Y92074*
X226977Y92030*
X227001Y91987*
X227026Y91945*
X227053Y91903*
X227080Y91862*
X227107Y91821*
X227135Y91780*
X227164Y91739*
X227193Y91698*
X227222Y91657*
X227252Y91617*
X227283Y91576*
X227314Y91536*
X227346Y91496*
X227378Y91457*
X227411Y91417*
X227444Y91379*
X227478Y91341*
X227513Y91304*
X227548Y91267*
X227583Y91231*
X227619Y91196*
X227656Y91162*
X227693Y91129*
X227731Y91097*
X227769Y91066*
X227808Y91036*
X227850Y91006*
X227893Y90976*
X227936Y90948*
X227981Y90921*
X228026Y90894*
X228161Y90817*
X228207Y90790*
X228252Y90763*
X228296Y90736*
X228339Y90708*
X228381Y90679*
X228423Y90648*
X228463Y90617*
X228503Y90581*
X228540Y90543*
X228574Y90502*
X228607Y90461*
X228640Y90417*
X228671Y90373*
X228702Y90330*
X228733Y90286*
X228766Y90243*
X228799Y90202*
X228833Y90163*
X228867Y90123*
X228902Y90083*
X228937Y90044*
X229007Y89966*
X229043Y89927*
X229078Y89888*
X229114Y89850*
X229150Y89811*
X229186Y89772*
X229329Y89618*
X229365Y89580*
X229400Y89541*
X229436Y89503*
X228286Y89553*
X221186Y89503*
X179336*
Y89703*
X179285Y89705*
X179234Y89708*
X179183Y89713*
X179134Y89720*
X179084Y89727*
X179035Y89736*
X178986Y89744*
X178937Y89754*
X178887Y89763*
X178838Y89772*
X178789Y89780*
X178739Y89787*
X178689Y89794*
X178639Y89798*
X178588Y89802*
X178536Y89803*
Y89953*
X177936*
Y90103*
X177286*
Y90303*
X177235Y90304*
X177183Y90306*
X177133Y90309*
X177082Y90313*
X177032Y90319*
X176982Y90324*
X176933Y90331*
X176883Y90338*
X176834Y90345*
X176784Y90352*
X176686Y90367*
X176637Y90374*
X176537Y90387*
X176488Y90392*
X176438Y90396*
X176387Y90400*
X176337Y90402*
X176286Y90403*
Y90603*
X176236Y90604*
X176186Y90606*
X176136Y90609*
X176086Y90612*
X176037Y90616*
X175987Y90620*
X175888Y90631*
X175789Y90643*
X175739Y90648*
X175690Y90655*
X175591Y90667*
X175541Y90672*
X175491Y90678*
X175441Y90683*
X175391Y90688*
X175340Y90692*
X175290Y90696*
X175239Y90699*
X175189Y90701*
X175137Y90702*
X175086Y90703*
Y90603*
X175286*
Y90403*
X175337Y90391*
X175388Y90380*
X175437Y90368*
X175486Y90357*
X175534Y90346*
X175583Y90336*
X175631Y90327*
X175680Y90319*
X175730Y90312*
X175780Y90307*
X175832Y90304*
X175886Y90303*
Y90103*
X176086*
Y89953*
X176486*
Y89803*
X176537Y89791*
X176588Y89780*
X176637Y89768*
X176686Y89757*
X176734Y89746*
X176783Y89736*
X176831Y89727*
X176880Y89719*
X176930Y89712*
X176980Y89707*
X177032Y89704*
X177086Y89703*
Y89503*
X177486*
Y89353*
X177736*
Y89203*
X178136*
Y89053*
X178336*
Y88853*
X178389Y88851*
X178440Y88846*
X178491Y88840*
X178540Y88832*
X178589Y88823*
X178687Y88802*
X178736Y88791*
X178785Y88780*
X178835Y88770*
X178885Y88761*
X178936Y88753*
Y88603*
X179336*
Y88453*
X179386Y88453*
X182686*
X182736Y88452*
X184136*
X184186Y88452*
X185286*
X185336Y88452*
X186236*
X186286Y88451*
X187086*
X187136Y88451*
X187836*
X187886Y88450*
X188536*
X188586Y88450*
X189186*
X189236Y88450*
X189836*
X189886Y88449*
X190436*
X190486Y88449*
X190987*
X191037Y88448*
X191537*
X191587Y88448*
X192087*
X192137Y88448*
X192587*
X192637Y88447*
X193087*
X193137Y88447*
X193537*
X193587Y88446*
X194037*
X194087Y88446*
X194487*
X194537Y88446*
X194937*
X194987Y88445*
X195337*
X195387Y88445*
X195787*
X195837Y88444*
X196187*
X196237Y88444*
X196587*
X196637Y88444*
X196987*
X197037Y88443*
X197387*
X197437Y88443*
X197787*
X197837Y88443*
X198137*
X198187Y88442*
X198537*
X198587Y88442*
X198887*
X198937Y88441*
X199287*
X199337Y88441*
X199637*
X199687Y88441*
X199987*
X200037Y88440*
X200337*
X200387Y88440*
X200687*
X200737Y88439*
X201037*
X201087Y88439*
X201387*
X201437Y88439*
X201687*
X201737Y88438*
X202038*
X202088Y88438*
X202388*
X202438Y88437*
X202688*
X202738Y88437*
X203038*
X203088Y88437*
X203338*
X203388Y88436*
X203638*
X203688Y88436*
X203988*
X204038Y88435*
X204288*
X204338Y88435*
X204588*
X204638Y88435*
X204888*
X204938Y88434*
X205238*
X205288Y88434*
X205538*
X205588Y88433*
X205838*
X205888Y88433*
X206138*
X206188Y88433*
X206438*
X206488Y88432*
X206688*
X206738Y88432*
X206988*
X207038Y88431*
X207288*
X207338Y88431*
X207588*
X207638Y88431*
X207888*
X207938Y88430*
X208138*
X208188Y88430*
X208438*
X208488Y88430*
X208738*
X208788Y88429*
X209038*
X209088Y88429*
X209288*
X209338Y88428*
X209588*
X209638Y88428*
X209838*
X209888Y88428*
X210138*
X210188Y88427*
X210388*
X210438Y88427*
X210688*
X210738Y88426*
X210938*
X210988Y88426*
X211238*
X211288Y88426*
X211488*
X211538Y88425*
X211788*
X211838Y88425*
X212038*
X212088Y88424*
X212288*
X212338Y88424*
X212588*
X212638Y88424*
X212838*
X212888Y88423*
X213088*
X213138Y88423*
X213388*
X213438Y88422*
X213638*
X213688Y88422*
X213888*
X213938Y88422*
X214138*
X214188Y88421*
X214388*
X214438Y88421*
X214688*
X214738Y88420*
X214938*
X214988Y88420*
X215188*
X215238Y88420*
X215438*
X215488Y88419*
X215688*
X215738Y88419*
X215988*
X216038Y88419*
X216238*
X216288Y88418*
X216488*
X216538Y88418*
X216738*
X216788Y88417*
X216988*
X217038Y88417*
X217238*
X217288Y88417*
X217488*
X217538Y88416*
X217738*
X217788Y88416*
X217988*
X218038Y88415*
X218238*
X218288Y88415*
X218488*
X218538Y88415*
X218738*
X218788Y88414*
X218988*
X219038Y88414*
X219238*
X219287Y88413*
X219487*
X219537Y88413*
X219737*
X219787Y88413*
X219987*
X220037Y88412*
X220237*
X220287Y88412*
X220487*
X220537Y88411*
X220737*
X220787Y88411*
X220987*
X221037Y88411*
X221237*
X221287Y88410*
X221487*
X221537Y88410*
X221737*
X221787Y88409*
X221987*
X222037Y88409*
X222237*
X222287Y88409*
X222487*
X222537Y88408*
X222737*
X222787Y88408*
X222987*
X223037Y88407*
X223187*
X223237Y88407*
X223437*
X223487Y88407*
X223687*
X223737Y88406*
X223937*
X223987Y88406*
X224187*
X224237Y88406*
X224437*
X224487Y88405*
X224686*
X224736Y88405*
X224936*
X224986Y88404*
X225186*
X225236Y88404*
X225436*
X225486Y88404*
X225686*
X225736Y88403*
X225936*
X225986Y88403*
X226236*
X226286Y88402*
X226785*
X226835Y88403*
X227135*
X227185Y88403*
X227335*
X227385Y88404*
X227535*
X227585Y88404*
X227685*
X227735Y88404*
X227835*
X227885Y88405*
X227935*
X227985Y88405*
X228085*
X228135Y88406*
X228185*
X228235Y88406*
X228285*
X228335Y88406*
X228385*
X228435Y88407*
X228485*
X228535Y88407*
X228585*
X228634Y88407*
X228684*
X228734Y88408*
X228784*
X228884Y88409*
X228934*
X228984Y88409*
X229034*
X229134Y88410*
X229184*
X229284Y88411*
X229334*
X229434Y88411*
X229484*
X229634Y88413*
X229684*
X229784Y88413*
X229834*
X229984Y88415*
X230034*
X230234Y88416*
X230284*
X230484Y88418*
X230534*
X230784Y88420*
X230834*
X231134Y88422*
X231184*
X231284Y88423*
X231335Y88423*
X231535Y88425*
X231585*
X231935Y88428*
X231985*
X232335Y88430*
X232385*
X232735Y88433*
X232785*
X232835Y88433*
X233085Y88435*
X233135*
X233385Y88437*
X233435*
X233635Y88439*
X233685*
X233885Y88441*
X233935*
X233985Y88441*
X234035Y88441*
X234085Y88442*
X234135*
X234285Y88443*
X234335*
X234435Y88444*
X234485*
X234585Y88444*
X234635*
X234735Y88445*
X234785*
X234885Y88446*
X234935*
X235035Y88447*
X235085*
X235135Y88447*
X235185*
X235285Y88448*
X235336*
X235386Y88448*
X235436*
X235486Y88449*
X235536*
X235586Y88449*
X235636*
X235686Y88450*
X235736*
X235786Y88450*
X235886*
X235936Y88450*
X235986*
X236036Y88451*
X236136*
X236186Y88451*
X236236*
X236286Y88452*
X236436*
X236486Y88452*
X236586*
X236636Y88452*
X236836*
X236886Y88453*
X237386*
X237436Y88453*
Y88253*
X237485*
X237533Y88254*
X237583Y88255*
X237633Y88257*
X237733Y88261*
X237783Y88263*
X237834Y88265*
X237885Y88266*
X237935Y88268*
X237986Y88269*
X238037Y88270*
X238087*
X238137Y88269*
X238188Y88268*
X238238Y88266*
X238287Y88263*
X238337Y88259*
X238385Y88254*
X238434Y88248*
X238481Y88240*
X238532Y88230*
X238583Y88219*
X238633Y88207*
X238683Y88193*
X238733Y88179*
X238783Y88165*
X238833Y88150*
X238883Y88135*
X238933Y88120*
X238983Y88107*
X239033Y88093*
X239083Y88081*
X239134Y88070*
X239185Y88061*
X239236Y88053*
Y87803*
X239636Y87703*
Y87553*
X239836*
Y87203*
X240036*
Y86603*
X240236*
Y86003*
X240036*
Y85653*
X239836*
Y85453*
X239636*
Y85053*
X239236Y84953*
Y84653*
X239036*
Y84353*
X238636Y84253*
Y83903*
X238436*
Y83603*
X238236*
Y83303*
X237836Y83203*
Y82803*
X237636*
Y82503*
X237236Y82403*
Y82103*
X237036*
X237016Y82055*
X236995Y82008*
X236973Y81963*
X236951Y81918*
X236929Y81874*
X236907Y81831*
X236886Y81787*
X236866Y81743*
X236847Y81699*
X236830Y81653*
X236815Y81606*
X236802Y81557*
X236793Y81506*
X236786Y81453*
X237236*
Y81653*
X237436*
Y81803*
X237636*
Y81953*
X237836*
Y82103*
X238036*
Y82253*
X238236*
Y82403*
X238636Y82503*
Y82703*
X239036Y82803*
Y83003*
X239236*
Y83203*
X239289Y83212*
X239341Y83224*
X239391Y83240*
X239441Y83257*
X239489Y83276*
X239538Y83296*
X239586Y83316*
X239635Y83336*
X239684Y83356*
X239733Y83374*
X239784Y83389*
X239836Y83403*
Y83603*
X240036*
Y83753*
X240236*
Y84053*
X240436*
Y84253*
X240836Y84353*
Y84653*
X241036*
Y84953*
X241236*
Y85303*
X241436*
Y85653*
X241636*
Y86953*
X241436*
Y87553*
X241236*
Y87803*
X241036*
Y88153*
X240636Y88253*
Y88453*
X240436*
Y88603*
X240236*
Y88753*
X240185Y88765*
X240134Y88776*
X240085Y88788*
X240036Y88799*
X239988Y88810*
X239939Y88820*
X239891Y88829*
X239842Y88837*
X239792Y88844*
X239742Y88848*
X239690Y88852*
X239636Y88853*
Y89053*
X239236*
Y89203*
X238836*
Y89353*
X238236*
Y89503*
X230736*
X230688Y89503*
X230639Y89502*
X230589Y89500*
X230538Y89498*
X230486Y89497*
X230434Y89496*
X230382Y89495*
X230330*
X230278Y89496*
X230225Y89498*
X230173Y89501*
X230122Y89506*
X230071Y89513*
X230020Y89521*
X229971Y89532*
X229923Y89545*
X229876Y89561*
X229830Y89580*
X229786Y89602*
X229745Y89626*
X229706Y89652*
X229667Y89679*
X229628Y89709*
X229591Y89740*
X229554Y89773*
X229518Y89807*
X229483Y89842*
X229448Y89878*
X229413Y89915*
X229379Y89953*
X229345Y89992*
X229312Y90030*
X229279Y90069*
X229246Y90109*
X229181Y90186*
X229148Y90224*
X229116Y90262*
X229084Y90299*
X229051Y90335*
X229019Y90369*
X228986Y90403*
X229043Y90405*
X229097Y90410*
X229148Y90418*
X229198Y90428*
X229246Y90439*
X229293Y90453*
X229339Y90467*
X229387Y90482*
X229434Y90497*
X229483Y90511*
X229534Y90525*
X229588Y90538*
X229637Y90549*
X229686Y90559*
X229735Y90570*
X229784Y90580*
X229833Y90591*
X229883Y90601*
X229932Y90612*
X230031Y90635*
X230080Y90646*
X230129Y90659*
X230178Y90671*
X230227Y90685*
X230276Y90698*
X230324Y90713*
X230372Y90729*
X230420Y90745*
X230468Y90762*
X230515Y90780*
X230562Y90799*
X230609Y90819*
X230655Y90840*
X230700Y90863*
X230746Y90887*
X230790Y90911*
X230834Y90938*
X230878Y90966*
X230920Y90995*
X230961Y91025*
X231001Y91056*
X231041Y91088*
X231078Y91121*
X231115Y91155*
X231151Y91190*
X231186Y91226*
X231220Y91262*
X231253Y91299*
X231285Y91337*
X231317Y91376*
X231347Y91415*
X231377Y91455*
X231406Y91495*
X231434Y91537*
X231462Y91578*
X231489Y91620*
X231515Y91663*
X231541Y91706*
X231566Y91749*
X231591Y91793*
X231615Y91837*
X231639Y91881*
X231662Y91926*
X231685Y91971*
X231707Y92016*
X231730Y92061*
X231752Y92106*
X231774Y92152*
X231795Y92197*
X231816Y92243*
X231837Y92288*
X231859Y92333*
X231900Y92424*
X231920Y92469*
X231937Y92513*
X231954Y92559*
X231969Y92605*
X231983Y92652*
X231996Y92699*
X232008Y92746*
X232020Y92794*
X232042Y92891*
X232052Y92939*
X232063Y92987*
X232074Y93035*
X232086Y93083*
X232098Y93131*
X232110Y93179*
X232124Y93226*
X232138Y93272*
X232154Y93319*
X232171Y93364*
X232189Y93409*
X232209Y93453*
X232231Y93496*
X232256Y93538*
X232282Y93579*
X232310Y93619*
X232341Y93658*
X232376Y93696*
X232412Y93729*
X232448Y93757*
X232485Y93782*
X232524Y93803*
X232563Y93820*
X232602Y93834*
X232642Y93846*
X232682Y93856*
X232723Y93863*
X232764Y93869*
X232806Y93874*
X232847Y93878*
X232931Y93885*
X232972Y93889*
X233014Y93894*
X233056Y93900*
X233097Y93907*
X233138Y93916*
X233179Y93928*
X233219Y93942*
X233259Y93959*
X233298Y93979*
X233336Y94003*
X233288Y94017*
X233239Y94029*
X233189Y94041*
X233139Y94052*
X232938Y94091*
X232887Y94101*
X232837Y94111*
X232787Y94123*
X232737Y94135*
X232688Y94148*
X232639Y94163*
X232592Y94179*
X232544Y94197*
X232496Y94219*
X232449Y94244*
X232404Y94272*
X232360Y94301*
X232317Y94332*
X232276Y94364*
X232234Y94396*
X232193Y94428*
X232152Y94459*
X232109Y94489*
X232066Y94518*
X232022Y94544*
X231976Y94567*
X231935Y94584*
X231892Y94600*
X231847Y94614*
X231800Y94626*
X231752Y94637*
X231703Y94647*
X231652Y94655*
X231601Y94662*
X231549Y94667*
X231496Y94671*
X231443Y94674*
X231389Y94676*
X231335Y94676*
X231281Y94676*
X231228Y94674*
X231174Y94672*
X231121Y94669*
X231069Y94664*
X231018Y94659*
X230967Y94653*
X230918Y94646*
X230870Y94638*
X230824Y94630*
X230780Y94621*
X230737Y94612*
X230688Y94600*
X230641Y94585*
X230594Y94569*
X230548Y94551*
X230502Y94531*
X230458Y94509*
X230414Y94487*
X230370Y94463*
X230328Y94438*
X230285Y94412*
X230243Y94385*
X230201Y94357*
X230160Y94329*
X230119Y94300*
X230078Y94271*
X230037Y94242*
X229996Y94212*
X229915Y94154*
X229874Y94125*
X229833Y94097*
X229792Y94069*
X229751Y94043*
X229709Y94016*
X229668Y93991*
X229626Y93967*
X229581Y93944*
X229535Y93923*
X229488Y93904*
X229440Y93887*
X229391Y93872*
X229342Y93857*
X229292Y93845*
X229241Y93833*
X229191Y93822*
X229139Y93812*
X229088Y93802*
X229037Y93793*
X228986Y93783*
X228936Y93774*
X228885Y93764*
X228835Y93754*
X228787Y93743*
X228738Y93731*
X228691Y93718*
X228644Y93705*
X228597Y93690*
X228550Y93675*
X228456Y93644*
X228409Y93628*
X228362Y93611*
X228315Y93595*
X228268Y93580*
X228221Y93564*
X228174Y93549*
X228126Y93535*
X228078Y93521*
X228030Y93509*
X227982Y93497*
X227934Y93487*
X227885Y93478*
X227836Y93470*
X227787Y93465*
X227738Y93461*
X227688Y93459*
X227638*
X227587Y93461*
X227536Y93466*
X227487Y93474*
X227439Y93485*
X227393Y93501*
X227348Y93520*
X227304Y93542*
X227261Y93567*
X227219Y93594*
X227178Y93622*
X227138Y93652*
X227098Y93683*
X227059Y93715*
X227020Y93746*
X226982Y93778*
X226944Y93809*
X226907Y93839*
X226827Y93901*
X226788Y93932*
X226710Y93995*
X226671Y94027*
X226633Y94059*
X226594Y94091*
X226556Y94122*
X226518Y94154*
X226442Y94219*
X226404Y94252*
X226367Y94284*
X226329Y94317*
X226291Y94349*
X226254Y94382*
X226216Y94415*
X226179Y94448*
X226141Y94481*
X226066Y94548*
X226029Y94581*
X225991Y94615*
X225954Y94648*
X225917Y94682*
X225881Y94717*
X225846Y94751*
X225811Y94786*
X225776Y94821*
X225741Y94855*
X225706Y94887*
X225669Y94919*
X225633Y94948*
X225595Y94975*
X225556Y94999*
X225516Y95019*
X225474Y95037*
X225431Y95050*
X225385Y95058*
X225338Y95062*
X225288Y95060*
X225236Y95053*
G37*
D02*
D20*
X14606Y20988D02*
Y20004D01*
X14360Y19512*
X14114Y19266*
X13622Y19020*
X13130*
X12638Y19266*
X12392Y19512*
X12146Y20004*
Y20988*
X12392Y21480*
X12638Y21726*
X13130Y21972*
X13622*
X14114Y21726*
X14360Y21480*
X14606Y20988*
X10669Y21972D02*
Y19020D01*
X8209*
X8701Y20496D02*
X10669D01*
X6732Y21972D02*
Y19020D01*
X4272*
X4764Y20496D02*
X6732D01*
X36752Y20988D02*
Y20004D01*
X36506Y19512*
X36260Y19266*
X35768Y19020*
X35276*
X34783Y19266*
X34537Y19512*
X34291Y20004*
Y20988*
X34537Y21480*
X34783Y21726*
X35276Y21972*
X35768*
X36260Y21726*
X36506Y21480*
X36752Y20988*
X32815Y21972D02*
Y19020D01*
X30354Y21972*
Y19020*
X124420Y46442D02*
X124577Y46755D01*
X124889Y46911*
X125202Y46755*
X125358Y46442*
Y45348*
X123483*
Y46442*
X123639Y46755*
X123952Y46911*
X124264Y46755*
X124420Y46442*
Y45348*
X125358Y47848D02*
X123483Y48630D01*
X125358Y49411*
X124577Y48161D02*
Y49098D01*
X125358Y51130D02*
X123483D01*
Y50348D02*
Y51911D01*
X125358Y53630D02*
X123483D01*
Y52848D02*
Y54411D01*
X124733Y57848D02*
Y59098D01*
X125358Y58474D02*
X124108D01*
X174055Y84805D02*
X174368Y84961D01*
X174836*
X175149Y84805*
X175305Y84492*
Y84023*
X175149Y83867*
X174836Y83711*
X174524*
X174211Y83867*
X174055Y84023*
Y84180*
X174211Y84336*
X174524Y84492*
X174836*
X175149Y84336*
X175305Y84180*
Y84023D02*
Y83711D01*
X176555D02*
Y84961D01*
Y84492D02*
X176711Y84805D01*
X177024Y84961*
X177336*
X177649Y84805*
X177805Y84492*
Y83711*
X179055Y84805D02*
X179368Y84961D01*
X179836*
X180149Y84805*
X180305Y84492*
Y84023*
X180149Y83867*
X179836Y83711*
X179524*
X179211Y83867*
X179055Y84023*
Y84180*
X179211Y84336*
X179524Y84492*
X179836*
X180149Y84336*
X180305Y84180*
Y84023D02*
Y83711D01*
X182336D02*
X182180D01*
Y85586*
X184055Y84961D02*
X184211Y84336D01*
X184524Y84023*
X184836*
X185149Y84336*
X185305Y84961*
X185149Y84336D02*
X184993Y83711D01*
X184836Y83398*
X184524Y83242*
X184211Y83398*
X186868Y84961D02*
X187493D01*
X187180Y85273D02*
Y83867D01*
X187336Y83711*
X187493*
X187649Y83867*
X189680Y83711D02*
Y84961D01*
Y85430D02*
X192805Y84805*
X192493Y84961D01*
X192024*
X191711Y84805*
X191555Y84492*
Y84180*
X191711Y83867*
X192024Y83711*
X192493*
X192805Y83867*
X194055D02*
X194368Y83711D01*
X194993*
X195305Y83867*
Y84180*
X194993Y84336*
X194368*
X194055Y84492*
Y84805*
X194368Y84961*
X194993*
X195305Y84805*
X197961Y83867D02*
X197649Y83711D01*
X197024*
X196711Y83867*
X196555Y84180*
Y85117*
X196711Y85430*
X197024Y85586*
X197493*
X197805Y85430*
X197961Y85117*
Y84336*
X197805Y84180*
X197649Y84336*
Y84961*
X197493Y85117*
X197024*
X196868Y84961*
Y84336*
X197024Y84180*
X197493*
X197649Y84336*
X199055Y84805D02*
X199368Y84961D01*
X199836*
X200149Y84805*
X200305Y84492*
Y84023*
X200149Y83867*
X199836Y83711*
X199524*
X199211Y83867*
X199055Y84023*
Y84180*
X199211Y84336*
X199524Y84492*
X199836*
X200149Y84336*
X200305Y84180*
Y84023D02*
Y83711D01*
X202336D02*
X202180D01*
Y85586*
X205305Y83867D02*
X205149Y83711D01*
X204836*
X204524*
X204211Y83867*
X204055Y84180*
Y84648*
X204211Y84805*
X204524Y84961*
X204836*
X205149Y84805*
X205305Y84648*
Y84492*
X205149Y84336*
X204836Y84180*
X204524*
X204211Y84336*
X204055Y84492*
X206555Y83711D02*
X207805Y84961D01*
Y83711D02*
X206555Y84961D01*
X209055Y84336D02*
X210305D01*
X211555Y83711D02*
Y85586D01*
Y84492D02*
X211711Y84805D01*
X212024Y84961*
X212336*
X212649Y84805*
X212805Y84492*
Y83711*
X214055Y84805D02*
X214368Y84961D01*
X214836*
X215149Y84805*
X215305Y84492*
Y84023*
X215149Y83867*
X214836Y83711*
X214524*
X214211Y83867*
X214055Y84023*
Y84180*
X214211Y84336*
X214524Y84492*
X214836*
X215149Y84336*
X215305Y84180*
Y84023D02*
Y83711D01*
X217336D02*
X217180D01*
Y85586*
X219836Y83711D02*
X219680D01*
Y85586*
X221711Y83711D02*
X221868Y83867D01*
X221711Y84023*
X221555Y83867*
X221711Y83711*
X225305Y84805D02*
X224993Y84961D01*
X224524*
X224211Y84805*
X224055Y84492*
Y84180*
X224211Y83867*
X224524Y83711*
X224993*
X225305Y83867*
X226555Y84180D02*
X226711Y83867D01*
X227024Y83711*
X227336*
X227649Y83867*
X227805Y84180*
Y84492*
X227649Y84805*
X227336Y84961*
X227024*
X226711Y84805*
X226555Y84492*
Y84180*
X229211Y83711D02*
X229368Y83867D01*
X229211Y84023*
X229055Y83867*
X229211Y83711*
X231555Y84961D02*
Y84180D01*
X231711Y83867*
X232024Y83711*
X232336*
X232649Y83867*
X232805Y84180*
Y84961D02*
Y83711D01*
X234055D02*
Y85586D01*
Y84336D02*
X234524D01*
X235305Y84961*
X234524Y84336D02*
X235305Y83711D01*
X308382Y11861D02*
X309007D01*
X308694D02*
Y13735D01*
X308382D02*
X309007D01*
X310413Y11861D02*
Y13735D01*
X311976Y11861*
Y13735*
X314476Y12173D02*
X314320Y12017D01*
X314007Y11861*
X313539*
X313226Y12017*
X313070Y12173*
X312913Y12485*
Y13111*
X313070Y13423*
X313226Y13579*
X313539Y13735*
X314007*
X314320Y13579*
X314476Y13423*
X315413Y13735D02*
Y11861D01*
X316976*
X318382D02*
X319007D01*
X318694D02*
Y13735D01*
X318382D02*
X319007D01*
X320413Y11861D02*
Y13735D01*
X321976Y11861*
Y13735*
X322913Y12485D02*
Y13111D01*
X323070Y13423*
X323226Y13579*
X323539Y13735*
X323851*
X324163Y13579*
X324320Y13423*
X324476Y13111*
Y12485*
X324320Y12173*
X324163Y12017*
X323851Y11861*
X323539*
X323226Y12017*
X323070Y12173*
X322913Y12485*
X325413Y11861D02*
Y13735D01*
X326194Y12798*
X326976Y13735*
Y11861*
X327913D02*
Y13735D01*
X329476*
X329163Y12798D02*
X327913D01*
Y11861D02*
X329476D01*
X331194D02*
Y13735D01*
X330413D02*
X331976D01*
X332913Y11861D02*
Y13735D01*
X334476*
X334163Y12798D02*
X332913D01*
Y11861D02*
X334476D01*
X335413D02*
Y13735D01*
X336507*
X336820Y13579*
X336976Y13267*
X336820Y12954*
X336507Y12798*
X335413*
X336507D02*
X336976Y11861D01*
X337913Y12485D02*
X339163D01*
X340413Y11861D02*
Y13735D01*
Y12798D02*
X341976D01*
Y11861D02*
Y13735D01*
X343694Y11861D02*
Y12798D01*
X342913Y13735*
X343694Y12798D02*
X344476Y13735D01*
X345413Y11861D02*
Y13735D01*
X346351*
X346663Y13579*
X346820Y13423*
X346976Y13111*
Y12485*
X346820Y12173*
X346663Y12017*
X346351Y11861*
X345413*
X347913D02*
Y13735D01*
X349007*
X349320Y13579*
X349476Y13267*
X349320Y12954*
X349007Y12798*
X347913*
X349007D02*
X349476Y11861D01*
X350413Y12485D02*
Y13111D01*
X350570Y13423*
X350726Y13579*
X351039Y13735*
X351351*
X351663Y13579*
X351820Y13423*
X351976Y13111*
Y12485*
X351820Y12173*
X351663Y12017*
X351351Y11861*
X351039*
X350726Y12017*
X350570Y12173*
X350413Y12485*
X352913Y11861D02*
Y13735D01*
X353694Y12798*
X354476Y13735*
Y11861*
X355413D02*
Y13735D01*
X356976*
X356663Y12798D02*
X355413D01*
Y11861D02*
X356976D01*
X358694D02*
Y13735D01*
X357913D02*
X359476D01*
X360413Y11861D02*
Y13735D01*
X361976*
X361663Y12798D02*
X360413D01*
Y11861D02*
X361976D01*
X362913D02*
Y13735D01*
X364007*
X364320Y13579*
X364476Y13267*
X364320Y12954*
X364007Y12798*
X362913*
X364007D02*
X364476Y11861D01*
X367913D02*
Y13735D01*
X368694Y12798*
X369476Y13735*
Y11861*
X370413D02*
Y13735D01*
Y12798D02*
X370882D01*
X371976Y13735*
X370882Y12798D02*
X371976Y11861D01*
X373226D02*
X373851D01*
X373539D02*
Y13735D01*
X373226Y13423*
X363102Y47426D02*
X363258Y47739D01*
X363570Y47895*
X363883Y47739*
X364039Y47426*
Y46333*
X362164*
Y47426*
X362320Y47739*
X362633Y47895*
X362945Y47739*
X363102Y47426*
Y46333*
X364039Y48833D02*
X362164Y49614D01*
X364039Y50395*
X363258Y49145D02*
Y50083D01*
X364039Y52114D02*
X362164D01*
Y51333D02*
Y52895D01*
X364039Y54614D02*
X362164D01*
Y53833D02*
Y55395D01*
X363414Y58833D02*
Y60083D01*
D02*
D21*
X67094Y29817D02*
X111594D01*
Y94317*
X67094*
Y29817D02*
Y94317D01*
X5594*
Y29817*
X67094*
X75811Y14758D02*
X102811D01*
Y24758*
X75811*
Y14758*
Y19758D02*
X69311D01*
X109311D02*
X102811D01*
X140280Y14266D02*
X167280D01*
Y24266*
X140280*
Y14266*
Y19266D02*
X133780D01*
X173780D02*
X167280D01*
X204748Y14266D02*
X231748D01*
Y24266*
X204748*
Y14266*
Y19266D02*
X198248D01*
X238248D02*
X231748D01*
D02*
D85*
X10441Y13163D02*
X6240D01*
Y27337*
X10441*
X11176Y10344D02*
G75*
G02X10604I-286D01*
G01*
X11176D02*
G75*
G02X10604I-286D01*
G01*
G75*
G02X11176I286*
G01*
X37315Y27337D02*
X41673D01*
Y13163*
X37315*
X0Y0D02*
M02*
