G04 EasyPC Gerber Version 21.0.3 Build 4286 *
%FSLAX35Y35*%
%MOIN*%
%ADD104O,0.07000X0.12000*%
%ADD13O,0.12000X0.07000*%
%ADD110R,0.05134X0.05134*%
%ADD107R,0.05331X0.05331*%
%ADD77R,0.05563X0.05563*%
%ADD102R,0.07555X0.07555*%
%ADD112R,0.08500X0.08500*%
%ADD111C,0.05134*%
%ADD108C,0.05331*%
%ADD78C,0.05563*%
%ADD106C,0.06512*%
%ADD109C,0.06906*%
%ADD81C,0.07000*%
%ADD83C,0.07299*%
%ADD103C,0.07555*%
%ADD105C,0.08400*%
%ADD75C,0.08500*%
%ADD113R,0.05291X0.04937*%
X0Y0D02*
D02*
D13*
X115492Y46943D03*
Y56943D03*
X371398Y46943D03*
Y56943D03*
D02*
D75*
X320886Y20742D03*
X330886D03*
D02*
D77*
X261909Y65644D03*
D02*
D78*
Y34896D03*
X271909D03*
Y65644D03*
X281909Y34896D03*
Y65644D03*
X291909Y34896D03*
Y65644D03*
D02*
D81*
X254272Y85211D03*
X261772D03*
X269272D03*
X284291D03*
X284390Y20250D03*
X291791Y85211D03*
X291890Y20250D03*
X299291Y85211D03*
X299390Y20250D03*
D02*
D83*
X64311Y19758D03*
X114311D03*
X128780Y19266D03*
X178780D03*
X193248D03*
X243248D03*
X245906Y30093D03*
Y80093D03*
X306634Y58636D03*
Y73400D03*
Y88656D03*
X307126Y42888D03*
X356634Y58636D03*
Y73400D03*
Y88656D03*
X357126Y42888D03*
D02*
D102*
X85472Y77829D03*
D02*
D103*
Y47829D03*
Y57829D03*
Y67829D03*
X95472Y47829D03*
Y57829D03*
Y67829D03*
Y77829D03*
D02*
D104*
X160768Y76746D03*
X170768D03*
X180768D03*
X190768D03*
X200768D03*
X210768D03*
X220768D03*
X230768D03*
D02*
D105*
X14094Y37317D03*
Y87317D03*
X104094Y37317D03*
Y47317D03*
Y77317D03*
Y87317D03*
D02*
D106*
X14114Y13754D03*
Y26746D03*
X23957Y13754D03*
Y26746D03*
X33799Y13754D03*
Y26746D03*
D02*
D107*
X138622Y78813D03*
X369429Y76844D03*
D02*
D108*
X146496Y78813D03*
X369429Y84719D03*
D02*
D109*
X119921Y72907D03*
Y82750D03*
X260177Y20250D03*
X270020D03*
D02*
D110*
X364508Y24187D03*
D02*
D111*
X370413D03*
D02*
D112*
X340886Y20742D03*
D02*
D113*
X263567Y28124D03*
X270567D03*
X0Y0D02*
M02*
