G04 EasyPC Gerber Version 21.0.3 Build 4286 *
%FSLAX35Y35*%
%MOIN*%
%ADD88O,0.06000X0.11000*%
%ADD90O,0.11000X0.06000*%
%ADD99R,0.04291X0.03937*%
%ADD95R,0.04134X0.04134*%
%ADD92R,0.04331X0.04331*%
%ADD22R,0.04563X0.04563*%
%ADD86R,0.06555X0.06555*%
%ADD97R,0.07500X0.07500*%
%ADD19C,0.00500*%
%ADD17C,0.00787*%
%ADD29C,0.01500*%
%ADD101C,0.03150*%
%ADD96C,0.04134*%
%ADD93C,0.04331*%
%ADD23C,0.04563*%
%ADD73C,0.04800*%
%ADD91C,0.05512*%
%ADD100C,0.05600*%
%ADD94C,0.05906*%
%ADD26C,0.06000*%
%ADD28C,0.06299*%
%ADD87C,0.06555*%
%ADD89C,0.07400*%
%ADD98C,0.07500*%
X0Y0D02*
D02*
D17*
X64311Y52730D02*
X90866D01*
X95472Y57337*
Y57829*
D02*
D19*
X1319Y7455D02*
X381240D01*
Y96037*
X1319*
Y7455*
D02*
D22*
X261909Y65644D03*
D02*
D23*
Y34896D03*
X271909D03*
Y65644D03*
X281909Y34896D03*
Y65644D03*
X291909Y34896D03*
Y65644D03*
D02*
D26*
X254272Y85211D03*
X261772D03*
X269272D03*
X284291D03*
X284390Y20250D03*
X291791Y85211D03*
X291890Y20250D03*
X299291Y85211D03*
X299390Y20250D03*
D02*
D28*
X64311Y19758D03*
X114311D03*
X128780Y19266D03*
X178780D03*
X193248D03*
X243248D03*
X245906Y30093D03*
Y80093D03*
X306634Y58636D03*
Y73400D03*
Y88656D03*
X307126Y42888D03*
X356634Y58636D03*
Y73400D03*
Y88656D03*
X357126Y42888D03*
D02*
D29*
X23957Y13754D02*
Y14837D01*
X28878Y19758*
X44626*
X48071Y23203*
X33799Y13754D02*
X36358Y16313D01*
X55945*
X58898Y13360*
X73169*
X83996Y24187*
X99252*
X100728Y22711*
X106142*
X48071Y35014D02*
X76614D01*
Y77829D02*
X85472D01*
X83941Y35014D02*
X76614D01*
X83941Y40427D02*
Y35014D01*
X95472Y67829D02*
X95807Y67494D01*
X110571*
X115000Y63065*
X122874*
X124350Y61589*
X124843*
X177008*
X95472Y77829D02*
Y77179D01*
X101713Y70939*
X107618*
X110571Y73892*
Y85703*
X114016Y89148*
X250335*
X254272Y85211*
X104094Y87317D02*
X39350D01*
X35768Y83734*
X115984Y67986D02*
Y68970D01*
X119921Y72907*
X115984Y67986D02*
X124843D01*
X126811Y66018*
X135177*
X128780Y30585D02*
X97283D01*
X92854Y35014*
X83941*
X128780Y46943D02*
X170768D01*
X128780Y82258D02*
X120413D01*
X119921Y82750*
X135177Y35014D02*
X171102D01*
X173563Y37474*
X187835*
Y35998*
X135177Y35014D02*
X122874D01*
X141575Y20742D02*
X160276D01*
X161752Y19266*
X163228*
X162736Y26156D02*
X111555D01*
X110079Y27632*
X44626*
X39213Y33045*
X30256*
X23957Y26746*
X170768Y46943D02*
X265965D01*
X272480Y40427*
X296102*
X297579Y41904*
Y46451*
X298071Y46943*
X177008Y31077D02*
X237539D01*
X178780Y19266D02*
X163228D01*
X210472Y41904D02*
X249843D01*
X220768Y76746D02*
X220807Y76707D01*
Y71431*
X223268Y68970*
X231142*
X237047Y63065*
X255256*
X257717Y60604*
X276909*
X228681Y24187D02*
X196693D01*
X194232Y26648*
X186161*
X178780Y19266*
X237539Y52730D02*
X163720D01*
X243248Y19266D02*
X252008D01*
X244921Y57159D02*
X191280D01*
X181929Y66510*
X135669*
X135177Y66018*
X249843Y41904D02*
X264902D01*
X271909Y34896*
X252008Y19266D02*
X252795D01*
X257224Y14837*
X278976*
X284390Y20250*
X254272Y85211D02*
Y87671D01*
X256732Y90132*
X305157*
X306634Y88656*
X261909Y52730D02*
X265591D01*
X272480Y45841*
X288228*
X294626Y52238*
X340394*
X340886Y52730*
X261909D02*
X237539D01*
X273957Y50270D02*
X274449D01*
X274941Y49778*
X286260*
X292657Y56175*
X304173*
X306634Y58636*
X276909Y60604D02*
X279862D01*
X281339Y59128*
X281909Y34896D02*
Y33459D01*
X284783Y30585*
X300236*
X307126Y37474*
Y42888*
X284291Y85211D02*
X283307D01*
X277402Y79305*
X264114*
X262638Y77829*
X292087Y78813D02*
X293150D01*
X295118Y80781*
Y81037*
X299291Y85211*
X292087Y78813D02*
X282323D01*
X280354Y76844*
Y67199*
X281909Y65644*
X298071Y46943D02*
X303110D01*
X304961Y48793*
X328701*
X330551Y46943*
X317264Y63065D02*
X316772Y63557D01*
X302500*
X298563Y59620*
X291673*
X286260Y54207*
X276909*
X273957Y57159*
X244921*
X317264Y88656D02*
X356634D01*
X320886Y20742D02*
Y19266D01*
X316457Y14837*
X295827*
X291890Y18774*
Y20250*
X340886Y52730D02*
X350728D01*
X356634Y58636*
X371398Y46943D02*
X371358Y46904D01*
D02*
D73*
X35768Y83734D03*
X48071Y23203D03*
Y35014D03*
X64311Y52730D03*
X76614Y35014D03*
Y77829D03*
X106142Y22711D03*
X115984Y67986D03*
X122874Y35014D03*
X128780Y30585D03*
Y46943D03*
Y82258D03*
X135177Y35014D03*
Y66018D03*
X141575Y20742D03*
X162736Y26156D03*
X163720Y52730D03*
X170768Y46943D03*
X177008Y31077D03*
Y61589D03*
X187835Y35998D03*
X210472Y41904D03*
X228681Y24187D03*
X237539Y31077D03*
Y52730D03*
X244921Y57159D03*
X261909Y52730D03*
X262638Y77829D03*
X273957Y50270D03*
X281339Y59128D03*
X298071Y46943D03*
X317264Y63065D03*
Y88656D03*
X340886Y52730D03*
D02*
D86*
X85472Y77829D03*
D02*
D87*
Y47829D03*
Y57829D03*
Y67829D03*
X95472Y47829D03*
Y57829D03*
Y67829D03*
Y77829D03*
D02*
D88*
X160768Y76746D03*
X170768D03*
X180768D03*
X190768D03*
X200768D03*
X210768D03*
X220768D03*
X230768D03*
D02*
D89*
X14094Y37317D03*
Y87317D03*
X104094Y37317D03*
Y47317D03*
Y77317D03*
Y87317D03*
D02*
D90*
X115492Y46943D03*
Y56943D03*
X371398Y46943D03*
Y56943D03*
D02*
D91*
X14114Y13754D03*
Y26746D03*
X23957Y13754D03*
Y26746D03*
X33799Y13754D03*
Y26746D03*
D02*
D92*
X138622Y78813D03*
X369429Y76844D03*
D02*
D93*
X146496Y78813D03*
X369429Y84719D03*
D02*
D94*
X119921Y72907D03*
Y82750D03*
X260177Y20250D03*
X270020D03*
D02*
D95*
X364508Y24187D03*
D02*
D96*
X370413D03*
D02*
D97*
X340886Y20742D03*
D02*
D98*
X320886D03*
X330886D03*
D02*
D99*
X83941Y40427D03*
X90941D03*
D02*
D100*
X95807Y19266D03*
X102697Y62081D03*
X141575Y42396D03*
X150433Y14837D03*
X151417Y41904D03*
X329075Y79305D03*
X330551Y46943D03*
X338425Y65033D03*
X368937Y67986D03*
D02*
D101*
X90941Y40427D02*
Y43297D01*
X95472Y47829*
X95807Y19266D02*
X101713Y13360D01*
X132224*
X133701Y14837*
X150433*
X104094Y37317D02*
X110906D01*
X114016Y40427*
X138622*
X140591Y42396*
X141575*
X115492Y56943D02*
X107835D01*
X102697Y62081*
X151417Y41904D02*
X193740D01*
X199646Y35998*
X252303*
X261161Y27140*
X329075Y79305D02*
X360571D01*
X365984Y84719*
X369429*
X330886Y20742D02*
Y24030D01*
X336457Y29600*
X368937*
X370413Y28124*
Y24187*
X338425Y65033D02*
X365984D01*
X368937Y67986*
X340886Y20742D02*
X361063D01*
X364508Y24187*
X371398Y46943D02*
Y56943D01*
Y46943D02*
Y39443D01*
X366969Y35014*
X316280*
X308406Y27140*
X261161*
X0Y0D02*
M02*
